<?xml version="1.0" encoding="iso-8859-1"?>
<!-- Generator: Adobe Illustrator 19.0.0, SVG Export Plug-In . SVG Version: 6.00 Build 0)  -->
<svg xmlns="http://www.w3.org/2000/svg" xmlns:xlink="http://www.w3.org/1999/xlink" version="1.1" id="Capa_1" x="0px" y="0px" viewBox="0 0 512 512" style="enable-background:new 0 0 512 512;" xml:space="preserve" width="512px" height="512px">
<g>
	<g>
		<path d="M437.786,190.098h-68.767v-79.184h-252.53v252.53h43.91c6.476,21.742,26.639,37.645,50.456,37.645    c23.817,0,43.98-15.903,50.456-37.645h77.708h30h6.035c6.476,21.742,26.638,37.645,50.456,37.645s43.981-15.903,50.456-37.645H512    V270.93L437.786,190.098z M210.855,371.089c-12.487,0-22.646-10.159-22.646-22.645c0-12.486,10.159-22.645,22.646-22.645    c12.486,0,22.645,10.159,22.645,22.645C233.5,360.93,223.341,371.089,210.855,371.089z M339.019,190.097v143.346h-77.708    c-6.476-21.742-26.638-37.645-50.456-37.645s-43.981,15.903-50.456,37.645h-13.91v-192.53h192.53V190.097z M425.509,371.089    c-12.486,0-22.645-10.159-22.645-22.645c0-12.486,10.159-22.645,22.645-22.645c12.487,0,22.646,10.159,22.646,22.645    C448.155,360.93,437.996,371.089,425.509,371.089z M482,333.443h-6.035c-6.476-21.742-26.639-37.645-50.456-37.645    c-23.817,0-43.98,15.903-50.456,37.645h-6.035V220.098h55.584L482,282.612V333.443z" fill="#777777"/>
	</g>
</g>
<g>
	<g>
		<rect x="27.689" y="110.911" width="58.8" height="30" fill="#777777"/>
	</g>
</g>
<g>
	<g>
		<rect x="27.689" y="230.911" width="58.8" height="30" fill="#777777"/>
	</g>
</g>
<g>
	<g>
		<rect y="170.911" width="86.49" height="30" fill="#777777"/>
	</g>
</g>
<g>
</g>
<g>
</g>
<g>
</g>
<g>
</g>
<g>
</g>
<g>
</g>
<g>
</g>
<g>
</g>
<g>
</g>
<g>
</g>
<g>
</g>
<g>
</g>
<g>
</g>
<g>
</g>
<g>
</g>
</svg>
